<svg width="24" height="20" viewBox="0 0 24 20" fill="none" xmlns="http://www.w3.org/2000/svg">
<path id="Vector" d="M15.36 5L16.8 6.5L8.64 15L7.2 13.5L15.36 5ZM2.4 0H21.6C22.932 0 24 1.1125 24 2.5V7.5C23.3635 7.5 22.753 7.76339 22.3029 8.23223C21.8529 8.70107 21.6 9.33696 21.6 10C21.6 10.663 21.8529 11.2989 22.3029 11.7678C22.753 12.2366 23.3635 12.5 24 12.5V17.5C24 18.8875 22.932 20 21.6 20H2.4C1.76348 20 1.15303 19.7366 0.702944 19.2678C0.252856 18.7989 0 18.163 0 17.5V12.5C1.332 12.5 2.4 11.3875 2.4 10C2.4 9.33696 2.14714 8.70107 1.69706 8.23223C1.24697 7.76339 0.63652 7.5 0 7.5V2.5C0 1.83696 0.252856 1.20107 0.702944 0.732233C1.15303 0.263392 1.76348 0 2.4 0ZM2.4 2.5V5.675C3.12921 6.113 3.73483 6.74333 4.15591 7.50256C4.57698 8.2618 4.79868 9.12317 4.79868 10C4.79868 10.8768 4.57698 11.7382 4.15591 12.4974C3.73483 13.2567 3.12921 13.887 2.4 14.325V17.5H21.6V14.325C20.8708 13.887 20.2652 13.2567 19.8441 12.4974C19.423 11.7382 19.2013 10.8768 19.2013 10C19.2013 9.12317 19.423 8.2618 19.8441 7.50256C20.2652 6.74333 20.8708 6.113 21.6 5.675V2.5H2.4ZM9 5C9.996 5 10.8 5.8375 10.8 6.875C10.8 7.9125 9.996 8.75 9 8.75C8.004 8.75 7.2 7.9125 7.2 6.875C7.2 5.8375 8.004 5 9 5ZM15 11.25C15.996 11.25 16.8 12.0875 16.8 13.125C16.8 14.1625 15.996 15 15 15C14.004 15 13.2 14.1625 13.2 13.125C13.2 12.0875 14.004 11.25 15 11.25Z" fill="#6C6C6C"/>
</svg>
