<svg width="24" height="24" viewBox="0 0 24 24" fill="none" xmlns="http://www.w3.org/2000/svg">
<g clip-path="url(#clip0_869_6134)">
<path d="M19.8686 5.64383C19.8694 4.81519 19.1973 4.14164 18.3686 4.14078L7.76203 4.12982C6.93339 4.12896 6.25984 4.80112 6.25899 5.62976C6.25813 6.4584 6.93029 7.13195 7.75893 7.13281L14.7493 7.13672L4.56976 17.2953C3.98247 17.8814 3.98149 18.8293 4.56757 19.4166C5.15364 20.0039 6.1016 20.0049 6.68888 19.4188L16.8652 9.26354L16.8612 16.2473C16.8604 17.076 17.5326 17.7495 18.3612 17.7504C19.1898 17.7512 19.8634 17.0791 19.8642 16.2504L19.8752 5.64384L19.8686 5.64383Z" fill="white"/>
</g>
<defs>
<clipPath id="clip0_869_6134">
<rect width="24" height="24" fill="white"/>
</clipPath>
</defs>
</svg>
