<svg width="1146" height="421" viewBox="0 0 1146 421" fill="none" xmlns="http://www.w3.org/2000/svg">
<path d="M79.084 166.927H81.6619L84.0416 166.531L92.1722 168.514C89.5149 196.673 84.5175 219.558 77.1009 237.128C69.6843 254.698 59.9673 267.865 47.95 276.591C47.2757 275.678 46.3238 274.608 45.0547 273.418C43.7855 272.228 42.556 271.038 41.2869 269.848C40.0177 268.658 38.9469 267.786 38.0347 267.27C49.5364 259.219 58.7378 247.241 65.5992 231.377C72.4605 215.512 76.9819 194.889 79.084 169.505V166.927ZM50.7262 183.783C50.3296 182.871 49.7744 181.681 49.0605 180.214C48.3466 178.747 47.5533 177.358 46.7601 176.05C45.9669 174.741 45.253 173.59 44.5788 172.678C46.2842 172.282 48.2276 170.894 50.4486 168.514C52.63 166.134 54.6527 163.437 56.4771 160.383C57.7859 158.4 59.888 154.791 62.7039 149.556C65.5595 144.321 68.5738 138.173 71.7467 131.113C74.9196 124.054 77.6165 116.915 79.8772 109.776V108.982L85.0331 106.603L93.9569 112.552C89.0786 124.45 83.764 136.031 78.0131 147.256C72.2622 158.48 66.551 168.157 60.8795 176.208V176.605C58.8964 177.398 57.191 178.152 55.8029 178.905C54.4147 179.619 53.2249 180.412 52.2333 181.285C51.2418 182.157 50.7262 182.951 50.7262 183.744V183.783ZM55.8822 196.673C59.7293 210.555 64.7663 221.779 71.0328 230.385C77.2992 238.992 84.4779 245.496 92.5688 249.899C100.62 254.341 109.345 257.315 118.745 258.822C128.145 260.329 137.862 261.123 147.896 261.123H176.452C179.903 261.123 182.6 261.043 184.583 260.924C183.512 262.63 182.52 264.772 181.529 267.35C180.537 269.928 179.903 272.188 179.625 274.171H147.301C135.799 274.171 124.853 273.259 114.501 271.395C104.11 269.531 94.5518 266.08 85.747 261.004C76.9423 255.927 69.129 248.51 62.228 238.794C55.3666 229.077 49.6554 216.345 45.1737 200.639L55.8822 196.673ZM49.7347 108.626H83.0501V121.714H49.7347V108.626ZM58.0635 166.927H82.2569V179.024H53.8991L58.0635 166.927ZM96.5349 191.319H173.279V203.217H96.5349V191.319ZM99.7078 110.807H170.106V176.248H99.7078V165.143H158.208V121.912H99.7078V110.807ZM124.694 95.1407H137.386V254.777H124.694V95.1407Z" fill="#F1CF28"/>
<path d="M35.7347 97.0445L49.2195 100.812C46.0466 111.64 42.3581 122.507 38.1144 133.334C33.8706 144.162 29.2303 154.395 24.1537 163.953C19.077 173.551 13.5245 182.118 7.5753 189.653C7.29767 188.463 6.70273 186.877 5.79053 184.894C4.87832 182.911 3.88681 180.967 2.89528 179.024C1.90375 177.12 0.951868 175.534 0 174.384C7.6546 164.746 14.5953 153.086 20.7428 139.482C26.8903 125.878 31.8876 111.719 35.695 97.0445H35.7347ZM22.2499 159.907L35.3381 148.009L35.5364 148.207V278.891H22.2499V159.907ZM90.6654 139.879H184.266V151.38H90.6654V139.879ZM91.2604 221.184H179.705V233.281H91.2604V221.184Z" fill="#F09D27"/>
<path d="M214.329 111.838H228.607V170.537C228.607 178.35 228.369 186.798 227.933 195.92C227.457 205.042 226.584 214.402 225.236 224C223.927 233.598 221.983 242.918 219.366 251.961C216.788 261.004 213.456 269.333 209.371 276.868C208.459 275.956 207.269 274.965 205.802 273.894C204.334 272.823 202.827 271.831 201.241 270.919C199.654 270.007 198.266 269.253 197.076 268.738C201.161 261.599 204.334 253.865 206.595 245.536C208.856 237.207 210.521 228.64 211.632 219.875C212.742 211.07 213.496 202.504 213.813 194.095C214.13 185.687 214.289 177.874 214.289 170.616V111.917L214.329 111.838ZM221.468 111.838H379.121V125.125H221.468V111.838ZM228.21 252.437C233.882 250.454 240.465 247.995 247.961 245.1C255.418 242.204 263.35 239.031 271.758 235.66C280.166 232.289 288.495 228.957 296.864 225.626L299.442 236.136C288.059 241.292 276.676 246.369 265.254 251.406C253.831 256.443 243.48 260.845 234.199 264.692L228.25 252.397L228.21 252.437ZM233.564 166.174H355.126V177.477H233.564V166.174ZM238.919 214.164L247.248 206.033C250.539 207.897 254.069 210.039 257.758 212.458C261.446 214.917 264.976 217.337 268.347 219.796C271.718 222.255 274.534 224.396 276.755 226.221L267.832 235.541C265.849 233.558 263.191 231.298 259.899 228.799C256.608 226.3 253.078 223.722 249.389 221.144C245.701 218.566 242.171 216.226 238.879 214.124L238.919 214.164ZM243.083 139.998H361.67V204.645H241.298V193.54H347.59V150.904H243.083V139.998ZM283.934 96.5685L298.41 92.4041C300.909 95.9736 303.487 99.9001 306.065 104.183C308.643 108.467 310.586 112.235 311.895 115.408L297.022 120.365C295.713 117.192 293.77 113.345 291.271 108.784C288.773 104.223 286.314 100.178 283.934 96.5685ZM354.729 165.381H381.104V178.469H354.729V165.381Z" fill="#F1CF28"/>
<path d="M610.543 105.056H759.074V170.1H610.543V105.056ZM625.218 116.359V132.224H744.003V116.359H625.218ZM625.218 142.734V158.797H744.003V142.734H625.218ZM631.762 181.999H742.417V193.897H631.762V181.999ZM676.778 108.427H691.254V165.143H676.778V108.427ZM733.691 181.999H748.961V259.338C748.961 263.701 748.366 266.953 747.176 269.055C745.986 271.157 743.805 272.823 740.632 274.013C737.459 274.925 733.096 275.48 727.544 275.599C721.991 275.718 715.051 275.797 706.722 275.797C706.603 273.933 706.206 271.792 705.532 269.372C704.858 266.913 704.064 264.732 703.152 262.749C706.999 262.868 710.728 263.026 714.337 263.145C717.946 263.264 721.198 263.304 723.974 263.264C726.751 263.185 728.615 263.145 729.527 263.145C731.113 263.026 732.184 262.669 732.819 262.154C733.414 261.638 733.691 260.686 733.691 259.378V182.038V181.999Z" fill="#F1CF28"/>
<path d="M609.751 104.977H758.282V170.021H609.751V104.977ZM623.435 181.919H637.514V218.606C637.514 224.674 637.157 231.258 636.443 238.357C635.73 245.417 634.222 252.358 632.001 259.179C629.741 266.001 626.369 272.149 621.888 277.701C621.095 276.789 620.024 275.758 618.636 274.608C617.247 273.497 615.78 272.386 614.273 271.355C612.766 270.284 611.417 269.491 610.227 268.976C614.193 263.939 617.128 258.545 619.032 252.715C620.936 246.884 622.165 241.015 622.681 235.065C623.197 229.116 623.474 223.484 623.474 218.209V181.919H623.435ZM624.426 116.28V132.145H743.211V116.28H624.426ZM624.426 142.655V158.718H743.211V142.655H624.426ZM639.497 239.23C647.43 238.317 656.829 237.128 667.657 235.66C678.484 234.193 689.986 232.567 702.162 230.782C714.338 228.997 726.435 227.252 738.452 225.507L739.047 236.017C727.823 238 716.559 240.063 705.335 242.165C694.111 244.267 683.283 246.25 672.892 248.114C662.501 249.978 652.903 251.604 644.058 253.072L639.497 239.19V239.23ZM648.024 209.484L652.784 199.965C660.319 201.155 668.331 202.662 676.858 204.526C685.385 206.39 693.516 208.373 701.25 210.475C708.984 212.577 715.448 214.719 720.604 216.821L715.845 227.53C710.689 225.428 704.264 223.246 696.609 220.986C688.955 218.725 680.824 216.583 672.337 214.56C663.81 212.498 655.719 210.832 648.064 209.484H648.024Z" fill="#F09D27"/>
<path d="M296.307 125.997H311.379V263.423C311.379 268.063 310.704 271.435 309.316 273.537C307.928 275.639 305.707 277.305 302.653 278.494C299.361 279.407 294.959 280.001 289.486 280.16C284.012 280.358 277.151 280.477 268.941 280.477C268.545 278.772 267.87 276.63 266.958 274.132C266.046 271.633 264.975 269.491 263.785 267.786C267.87 267.905 271.836 268.024 275.684 268.103C279.531 268.182 282.862 268.182 285.718 268.103C288.573 268.024 290.517 267.984 291.548 267.984C293.412 267.865 294.642 267.508 295.316 266.913C295.99 266.318 296.307 265.168 296.307 263.423V125.997Z" fill="#F09D27"/>
<path d="M302.257 238.635L308.801 229.314C314.632 231.416 320.779 233.796 327.244 236.453C333.709 239.111 340.213 241.847 346.678 244.663C353.143 247.519 359.211 250.256 364.843 252.913C370.475 255.57 375.313 257.989 379.398 260.25L372.656 271.157C368.809 268.896 364.089 266.358 358.457 263.502C352.825 260.647 346.836 257.752 340.411 254.777C333.986 251.802 327.521 248.907 320.977 246.131C314.433 243.355 308.206 240.856 302.257 238.595V238.635Z" fill="#F09D27"/>
<path d="M358.576 210.674L369.681 219.399C364.009 223.881 357.782 228.402 351.04 232.884C344.298 237.366 338.071 241.094 332.399 243.989L323.674 236.453C327.362 234.193 331.368 231.615 335.652 228.719C339.935 225.824 344.099 222.731 348.145 219.478C352.19 216.226 355.641 213.291 358.536 210.674H358.576Z" fill="#F09D27"/>
<path d="M442.182 210.277C445.633 220.311 450.115 228.482 455.667 234.748C461.22 241.015 467.645 245.814 474.903 249.105C482.161 252.397 490.212 254.658 499.017 255.848C507.822 257.038 517.301 257.633 527.454 257.633H558.588C562.951 257.633 566.917 257.633 570.486 257.514C574.056 257.434 576.753 257.434 578.617 257.434C577.943 258.624 577.229 260.092 576.435 261.876C575.642 263.661 574.928 265.525 574.333 267.429C573.738 269.333 573.302 271.038 573.025 272.505H526.621C514.842 272.505 503.974 271.752 493.98 270.205C483.985 268.698 475.022 265.882 467.01 261.797C458.999 257.712 451.899 251.842 445.672 244.267C439.446 236.652 434.25 226.855 430.006 214.838L442.103 210.277H442.182Z" fill="#F09D27"/>
<path d="M479.465 161.097H494.933V261.638L479.465 259.457V161.097Z" fill="#F09D27"/>
<path d="M554.027 201.353H487.198V215.235H554.027V201.353Z" fill="#F09D27"/>
<path d="M432.664 185.965L447.735 187.551C445.078 207.501 440.517 225.031 434.052 240.102C427.587 255.173 418.703 267.588 407.479 277.384C406.805 276.472 405.774 275.361 404.306 274.092C402.839 272.823 401.332 271.593 399.745 270.324C398.159 269.055 396.691 268.103 395.382 267.469C406.487 258.862 414.935 247.638 420.765 233.757C426.596 219.875 430.562 203.931 432.664 185.965ZM404.504 116.756H570.288V159.987H555.018V130.836H419.179V159.987H404.504V116.756ZM430.086 155.426H545.896V169.902H430.086V155.426ZM472.722 97.1238L487.396 92.9594C489.657 96.8066 491.918 100.971 494.218 105.532C496.518 110.093 498.144 114.019 499.096 117.311L483.827 122.071C482.915 118.898 481.368 114.932 479.266 110.172C477.164 105.413 474.982 101.05 472.722 97.0841V97.1238Z" fill="#F1CF28"/>
<path d="M663.749 323.719H721.188V327.276H663.749V323.719ZM668.379 330.564H717.229V333.919H668.379V330.564ZM702.131 339.824V344.32H713.673V339.824H702.131ZM686.698 339.824V344.32H697.971V339.824H686.698ZM671.6 339.824V344.32H682.47V339.824H671.6ZM667.037 336.67H718.437V347.54H667.037V336.67ZM689.784 320.163H694.75V332.174H689.784V320.163ZM675.961 359.887V363.578H709.714V359.887H675.961ZM675.961 366.53V370.288H709.714V366.53H675.961ZM675.961 353.378V356.935H709.714V353.378H675.961ZM671.063 350.225H714.746V373.308H671.063V350.225ZM697.904 376.864L702.131 374.314C709.646 375.925 717.967 378.005 723 379.682L717.229 382.232C712.935 380.622 705.62 378.542 697.904 376.864ZM682.604 374.113L686.966 376.126C681.262 378.475 672.539 380.756 665.829 381.964C665.024 381.024 663.279 379.28 662.138 378.475C669.251 377.535 677.572 375.992 682.604 374.113Z" fill="#231815"/>
<path d="M594.902 362.773H655.831V366.933H594.902V362.773ZM596.848 325.397H653.08V329.423H596.848V325.397ZM634.895 358.411H639.727V376.529C639.727 379.146 639.19 380.488 637.11 381.226C634.962 381.897 631.54 381.897 626.105 381.897C625.904 380.622 625.233 378.81 624.561 377.535C628.588 377.669 632.345 377.669 633.486 377.602C634.56 377.535 634.895 377.267 634.895 376.394V358.411ZM622.75 320.297H627.715V356.264H622.75V320.297ZM605.639 369.751L609.061 366.799C613.02 369.08 617.985 372.637 620.334 375.254L616.643 378.609C614.362 375.925 609.665 372.234 605.639 369.751ZM606.779 343.984V348.144H644.088V343.984H606.779ZM606.779 336.603V340.696H644.088V336.603H606.779ZM602.015 333.248H648.987V351.567H602.015V333.248ZM635.298 352.976L638.183 350.426C643.551 352.238 649.926 355.593 653.281 358.075L650.262 360.961C646.974 358.277 640.599 354.787 635.298 352.976ZM597.586 355.458C609.799 355.458 629.326 355.257 647.712 354.922L647.443 358.344C629.527 358.814 610.47 359.216 597.788 359.417L597.586 355.458Z" fill="#231815"/>
<path d="M556.654 334.657H588.997V339.488H556.654V334.657ZM576.785 320.297H582.019V375.052C582.019 378.542 581.146 380.085 578.932 380.89C576.651 381.763 572.692 381.83 566.988 381.83C566.652 380.42 565.847 378.139 565.176 376.663C569.538 376.797 573.899 376.73 575.107 376.73C576.382 376.663 576.785 376.327 576.785 375.119V320.297ZM576.248 336.871L580.274 339.287C575.309 351.097 565.646 364.182 556.386 371.227C555.581 369.885 554.037 368.141 552.762 367.134C561.888 360.894 571.551 348.211 576.248 336.871ZM528.74 334.59H554.171V339.421H528.74V334.59ZM539.946 320.163H544.978V381.83H539.946V320.163ZM539.677 337.542L543.234 338.817C540.483 349.755 534.98 362.84 529.209 369.617C528.673 368.141 527.331 366.061 526.391 364.853C531.826 358.814 537.329 347.406 539.677 337.542ZM544.509 340.83C546.656 342.776 554.238 351.634 555.916 353.781L552.695 358.143C550.548 354.586 544.307 346.198 541.892 343.38L544.509 340.83Z" fill="#231815"/>
<path d="M490.894 324.592C485.123 331.704 474.051 339.891 462.912 345.058C462.309 343.917 461.034 342.105 459.96 340.965C471.367 336.066 482.64 327.611 488.076 320.096H493.108C500.423 328.551 512.098 336.267 522.566 340.226C521.425 341.434 520.218 343.246 519.345 344.655C509.28 340.159 497.403 332.174 490.894 324.592ZM474.991 348.413H507.133V352.305H474.991V348.413ZM488.344 331.973H493.511V341.099H488.344V331.973ZM464.389 376.596C471.837 375.992 483.244 374.985 494.316 373.912L494.383 378.475C483.848 379.548 472.776 380.622 465.06 381.36L464.389 376.596ZM491.431 360.424C496.396 369.886 507.267 375.522 521.56 377.535C520.486 378.609 519.144 380.622 518.473 381.964C503.711 379.347 492.773 372.838 487.136 361.766L491.431 360.424ZM514.111 359.351L517.869 362.303C512.568 366.061 505.657 369.953 500.154 372.57L496.933 369.818C502.368 367.201 509.75 362.706 514.111 359.351ZM474.991 338.683H510.354V362.37H474.991V358.277H505.321V342.776H474.991V338.683ZM471.971 338.683H476.937V377.2L471.971 377.736V338.683Z" fill="#231815"/>
<path d="M413.861 354.519H454.592V358.612H413.861V354.519ZM419.162 365.121L421.846 362.034C425.335 364.048 429.831 367.067 432.046 369.147L429.227 372.637C427.08 370.489 422.651 367.268 419.162 365.121ZM440.903 350.56L443.386 348.144C445.869 349.486 448.955 351.499 450.499 353.043L447.882 355.66C446.405 354.184 443.386 351.969 440.903 350.56ZM418.826 356.398H423.389C422.651 366.799 420.638 376.26 413.123 381.763C412.452 380.756 411.11 379.213 410.036 378.475C416.679 373.777 418.29 365.188 418.826 356.398ZM430.905 320.23H435.401C435.065 353.647 439.964 377.669 449.09 377.669C451.035 377.669 451.707 376.126 452.042 370.02C452.981 370.959 454.525 371.831 455.598 372.234C454.726 379.817 453.25 382.031 448.754 382.031C435.267 381.964 431.039 354.519 430.905 320.23ZM445.936 359.686L450.23 361.296C445.869 370.556 437.615 377.602 427.281 381.897C426.677 381.024 425.402 379.481 424.463 378.676C434.528 374.784 442.178 368.007 445.936 359.686ZM435.736 331.906L437.816 329.154C440.769 331.168 444.124 334.254 445.667 336.401L443.52 339.555C441.977 337.341 438.622 334.12 435.736 331.906ZM448.284 340.025L451.371 338.817C453.25 341.904 455.062 345.93 455.598 348.48L452.31 350.023C451.707 347.406 450.029 343.179 448.284 340.025ZM436.609 344.722C440.769 344.454 446.338 344.118 452.243 343.716V347.205C446.875 347.742 441.775 348.211 437.347 348.614L436.609 344.722ZM443.52 320.834L447.412 322.377C445.533 326.135 443.252 330.497 441.373 333.248L438.487 331.906C440.165 328.953 442.379 324.122 443.52 320.834ZM449.022 327.544L452.78 329.356C449.358 335.127 444.795 342.306 441.171 346.869L438.353 345.259C441.91 340.629 446.473 332.979 449.022 327.544ZM412.989 331.906L415.136 329.154C418.021 331.168 421.443 334.254 422.92 336.401L420.772 339.555C419.229 337.341 415.874 334.12 412.989 331.906ZM424.664 340.428L427.751 339.287C429.496 342.374 431.106 346.467 431.509 349.017L428.221 350.426C427.751 347.809 426.275 343.649 424.664 340.428ZM413.257 345.46C417.484 345.259 422.987 344.856 428.959 344.387V348.01C423.591 348.547 418.424 349.017 413.995 349.419L413.257 345.46ZM420.84 320.834L424.731 322.444C422.786 326.135 420.504 330.564 418.692 333.315L415.807 332.04C417.484 329.02 419.632 324.122 420.84 320.834ZM426.342 327.544L430.033 329.356C426.543 335.328 421.846 342.776 418.021 347.406L415.136 345.863C418.894 341.099 423.658 333.181 426.342 327.544ZM393.932 334.724H414.264V339.421H393.932V334.724ZM402.454 320.163H407.017V381.83H402.454V320.163ZM402.252 337.542L405.272 338.482C403.393 349.084 399.434 362.303 395.005 369.013C394.468 367.805 393.328 365.926 392.522 364.853C396.616 358.814 400.642 347.071 402.252 337.542ZM406.681 341.971C408.023 343.783 413.257 352.17 414.331 354.116L411.781 357.807C410.439 354.452 406.211 346.534 404.601 343.917L406.681 341.971Z" fill="#231815"/>
<path d="M327.635 328.886H386.416V333.65H327.635V328.886ZM344.008 352.842H375.546V357.203H344.008V352.842ZM340.451 341.434H374.741V345.93H345.417V381.897H340.451V341.434ZM373.6 341.434H378.498V375.656C378.498 378.609 377.894 380.152 375.613 380.957C373.466 381.763 369.708 381.763 363.937 381.763C363.736 380.353 362.998 378.273 362.26 376.864C366.755 377.065 370.849 376.998 372.056 376.998C373.197 376.931 373.6 376.596 373.6 375.589V341.434ZM349.577 320.163L354.677 321.371C350.114 336.133 342.062 351.03 329.245 360.021C328.574 358.881 327.031 357.136 326.024 356.13C338.036 347.876 345.954 333.65 349.577 320.163ZM344.008 364.182H375.546V368.543H344.008V364.182Z" fill="#231815"/>
<path d="M314.798 312V392.256H310.032V312H314.798Z" fill="#231815"/>
<path d="M254.418 333.986H281.259V337.811H254.418V333.986ZM267.905 324.524C262 330.496 251.264 337.341 240.259 341.703C239.655 340.562 238.515 338.75 237.508 337.676C248.714 333.65 259.719 326.605 265.221 320.297H269.986C277.367 327.276 288.573 333.315 298.571 336.401C297.498 337.542 296.29 339.354 295.552 340.696C286.023 337.274 274.481 330.698 267.905 324.524ZM252.673 345.662V351.969H282.802V345.662H252.673ZM248.11 341.904H287.566V355.66H248.11V341.904ZM237.374 375.589H298.437V380.018H237.374V375.589ZM244.957 360.089H291.056V377.938H286.157V364.249H277.031V377.938H272.334V364.249H263.343V377.938H258.645V364.249H249.654V377.938H244.957V360.089Z" fill="#231815"/>
<path d="M185.034 320.163H189.328V331.235H185.034V320.163ZM186.778 323.115H200.803V326.47H186.778V323.115ZM181.41 329.758H196.777V333.113H178.659L181.41 329.758ZM195.569 329.758H196.441L197.246 329.624L199.93 331.1C194.898 341.166 183.356 347.138 172.217 350.023C171.68 348.95 170.674 347.473 169.869 346.601C180.202 344.32 191.408 338.75 195.569 330.497V329.758ZM175.841 336.334L178.458 334.053C181.88 335.529 186.174 337.878 188.389 339.757L185.705 342.239C183.625 340.495 179.33 337.945 175.841 336.334ZM179.934 328.752L183.759 329.893C180.94 333.65 176.31 337.274 172.083 339.555C171.412 338.884 169.869 337.542 168.929 336.938C173.224 334.925 177.518 331.973 179.934 328.752ZM203.554 323.115H224.423V326.806H203.554V323.115ZM223.215 323.115H224.154L224.892 322.914L227.778 324.189C223.953 334.388 214.961 341.032 205.768 344.252C205.231 343.179 204.091 341.501 203.218 340.629C211.673 338.079 220.061 331.973 223.215 323.786V323.115ZM203.353 332.107L206.238 329.289C214.559 333.046 224.825 339.153 229.992 343.649L226.905 346.937C221.94 342.374 211.74 336.066 203.353 332.107ZM200.467 344.051C194.428 349.419 183.222 354.989 172.083 358.277C171.613 357.203 170.674 355.66 169.869 354.72C181.209 351.701 192.415 346.265 198.186 340.696H202.279C209.929 346.937 221.671 351.768 231.938 353.915C230.999 354.989 229.992 356.666 229.455 357.74C219.591 355.257 207.513 349.889 200.467 344.051ZM185.369 354.72H219.39V370.154H185.369V367.067H214.626V357.807H185.369V354.72ZM182.752 354.72H187.516V378.139L182.752 378.542V354.72ZM221.94 367.134L225.63 369.483C221.403 372.167 216.035 374.985 211.807 376.73L209.056 374.717C213.217 372.838 218.786 369.55 221.94 367.134ZM201.34 368.275C206.305 374.314 217.645 377.334 230.797 378.206C229.858 379.078 228.784 380.756 228.247 381.964C214.626 380.689 203.218 376.864 197.582 369.416L201.34 368.275ZM185.369 360.894H216.236V363.712H185.369V360.894ZM191.945 349.285H209.459V352.372H191.945V349.285ZM175.17 377.132C182.283 376.529 193.287 375.522 203.957 374.381V378.206C193.891 379.28 183.222 380.42 175.774 381.159L175.17 377.132Z" fill="#231815"/>
<path d="M107.665 327.074H159.535V331.033H107.665V327.074ZM111.356 334.858H155.845V338.616H111.356V334.858ZM103.908 342.508H163.36V346.4H103.908V342.508ZM119.207 358.814H147.39V361.9H119.207V358.814ZM131.017 328.953H136.184V344.454H131.017V328.953ZM131.151 348.077H135.982V354.049H131.151V348.077ZM116.791 321.639L121.153 320.029C123.166 322.042 125.112 324.927 126.051 326.873L121.354 328.819C120.616 326.806 118.67 323.786 116.791 321.639ZM145.511 320.096L150.812 321.438C149.067 324.055 147.121 326.672 145.511 328.416L141.283 327.074C142.76 325.128 144.504 322.042 145.511 320.096ZM145.175 343.581C149.067 349.352 156.918 354.452 164.836 356.666C163.83 357.673 162.353 359.417 161.615 360.625C153.563 357.874 145.511 351.835 141.149 345.058L145.175 343.581ZM134.305 366.799C139.539 373.106 150.745 376.663 163.696 377.736C162.689 378.743 161.481 380.689 160.877 382.031C147.457 380.353 136.184 375.857 130.346 367.872L134.305 366.799ZM119.744 351.835H150.946V369.013H119.744V365.591H145.913V355.257H119.744V351.835ZM116.456 351.835H121.421V378.206H116.456V351.835ZM108.672 376.864C116.053 376.327 127.595 375.455 138.734 374.515V378.609C128.131 379.615 117.06 380.622 109.276 381.36L108.672 376.864ZM155.174 367.671L158.931 370.02C154.972 372.502 149.805 374.851 145.712 376.394L142.827 374.314C146.719 372.637 152.087 369.751 155.174 367.671ZM121.958 343.581L126.588 344.99C121.891 352.103 113.637 357.874 105.786 361.498C105.115 360.558 103.371 358.746 102.23 357.807C110.148 354.72 117.798 349.688 121.958 343.581Z" fill="#231815"/>
<path d="M64.1829 360.156L69.6853 361.028C68.5445 363.846 67.4038 366.597 66.5315 368.543L62.1698 367.671C62.9079 365.39 63.7803 362.303 64.1829 360.156ZM53.2452 353.58V358.881H79.9519V353.58H53.2452ZM48.5481 350.09H84.9174V362.303H48.5481V350.09ZM44.1194 366.396H90.4869V381.897H85.5214V370.154H48.8836V381.964H44.1194V366.396ZM47.0718 376.26H87.6015V380.085H47.0718V376.26ZM38.617 341.904H94.7814V354.116H89.6817V345.997H43.4483V354.116H38.617V341.904ZM61.5659 323.451L65.7262 324.994C63.7132 327.544 61.4988 330.094 59.687 331.771L56.6674 330.362C58.345 328.416 60.4252 325.397 61.5659 323.451ZM49.152 333.315L52.1716 330.564C55.9293 332.644 60.962 335.798 63.579 337.744L60.4923 340.964C57.9424 338.951 52.9768 335.663 49.152 333.315ZM50.6283 320.163H55.1241C54.386 332.375 51.5006 338.482 38.5499 341.904C38.1473 340.763 36.9394 339.086 36 338.213C47.81 335.529 50.0243 330.698 50.6283 320.163ZM43.0457 323.182L46.4008 324.39C45.3272 327.611 43.6496 330.899 40.6971 332.845L37.4762 330.765C40.1603 329.154 42.0392 326.068 43.0457 323.182ZM91.0908 323.249L95.4525 324.927C93.2381 327.544 90.7553 330.161 88.8765 331.973L85.6556 330.497C87.5344 328.483 89.883 325.33 91.0908 323.249ZM77.6704 333.315L80.5558 330.295C85.4543 332.711 92.0974 336.401 95.5196 338.817L92.5 342.374C89.212 339.891 82.636 335.999 77.6704 333.315ZM79.0125 320.163H83.6425C82.9044 331.973 80.019 338.146 67.2696 341.434C66.867 340.361 65.6591 338.549 64.6526 337.676C76.1271 334.992 78.4085 330.228 79.0125 320.163ZM71.1615 323.249L74.5837 324.524C73.3759 327.611 71.6312 330.765 68.8129 332.845L65.5249 330.698C68.1419 329.02 70.155 326.001 71.1615 323.249Z" fill="#231815"/>
<path d="M984.407 402.196C1073.72 400.554 1145.6 327.696 1145.6 238.06C1145.6 157.257 1087.19 90.0791 1010.25 76.4203C979.676 68.4417 956.826 41.4196 955.151 8.783C948.711 3.3162 940.35 0 931.233 0C927.718 0 924.318 0.492506 921.098 1.41185C904.474 19.0435 894.273 42.8151 894.273 68.9507C894.273 89.8657 898.429 103.098 912.162 125.654C920.375 139.149 934.108 164.382 923.644 194.063C890.544 287.902 837.617 249.995 792.41 318.027C783.474 331.472 776 346.871 776 364.453C776 378.588 779.975 391.788 786.858 403.017H818.545C818.513 402.458 818.513 401.9 818.513 401.342C818.513 380.936 835.054 364.404 855.473 364.404C862.865 364.404 869.764 366.571 875.53 370.314L875.497 370.298C907.217 389.965 944.473 401.556 984.407 402.196Z" fill="#FAA21F"/>
<path d="M962.778 355.027L1047.92 282.935C1063.88 269.419 1066.83 245.927 1054.71 228.878C1041.15 209.812 1019.98 197.584 996.693 195.376C975.871 193.401 957.007 207.704 953.286 228.289L933.436 338.083C930.432 354.699 949.894 365.937 962.778 355.027Z" fill="white"/>
<path d="M1004.14 256.586L1037.36 275.765" stroke="#FAA21F" stroke-width="10" stroke-linecap="round"/>
<path d="M1004.37 285.33L1016.68 292.933" stroke="#FAA21F" stroke-width="10" stroke-linecap="round"/>
<path d="M1044.1 194.89L1068.9 175.576C1077.38 168.971 1077.88 156.328 1069.96 149.064C1066.84 146.205 1063.13 144.065 1059.1 142.793C1048.85 139.562 1038.15 146.323 1036.67 156.969L1032.35 188.103C1031.44 194.616 1038.92 198.931 1044.1 194.89Z" fill="white"/>
<path d="M1054.24 196.42L1091.8 195.246C1097.04 195.082 1100.02 192.619 1099.08 189.216C1098.16 185.887 1095.08 182.388 1090.51 179.476L1088.85 178.419C1082.03 174.079 1072.52 172.568 1067.16 174.972L1043.04 185.791C1036.7 188.635 1045.21 196.703 1054.24 196.42Z" fill="white"/>
<path d="M1025.91 180.093L1008.14 146.973C1005.67 142.35 1006.31 138.543 1009.73 137.654C1013.07 136.784 1017.64 137.701 1022.45 140.208L1024.19 141.118C1031.36 144.854 1037.42 152.335 1038.02 158.18L1040.71 184.48C1041.42 191.393 1030.18 188.063 1025.91 180.093Z" fill="white"/>
<path d="M1015.29 160.299L1071.51 195.875L1053.21 196.56L1038.02 196.675C1036.28 196.688 1034.68 195.756 1033.84 194.243L1025.44 179.221L1015.29 160.299Z" fill="white"/>
</svg>
